<svg xmlns="http://www.w3.org/2000/svg" viewBox="0 0 96 96" role="img" aria-label="VALE VOICE LAB">
  <defs><linearGradient id="a" x1="16" y1="12" x2="80" y2="84" gradientUnits="userSpaceOnUse"><stop stop-color="#9bf3ff"/><stop offset=".52" stop-color="#62b9ed"/><stop offset="1" stop-color="#6975ff"/></linearGradient><filter id="b" x="-50%" y="-50%" width="200%" height="200%"><feGaussianBlur stdDeviation="3"/></filter></defs>
  <rect width="96" height="96" rx="25" fill="#07111f"/><path d="M19 27c8-10 18-15 29-15s21 5 29 15" fill="none" stroke="#6ee5fa" stroke-opacity=".32" stroke-width="2"/><path d="M20 69c7 9 17 14 28 14s21-5 28-14" fill="none" stroke="#7085ff" stroke-opacity=".35" stroke-width="2"/>
  <path d="M20 40c7-12 14 12 21 0s14-12 21 0 14 12 21 0" fill="none" stroke="url(#a)" stroke-linecap="round" stroke-width="5" filter="url(#b)"/><path d="M20 40c7-12 14 12 21 0s14-12 21 0 14 12 21 0" fill="none" stroke="url(#a)" stroke-linecap="round" stroke-width="3"/>
  <circle cx="48" cy="40" r="5" fill="#e5fbff"/><path d="M39 57h18" stroke="#b7eff9" stroke-linecap="round" stroke-width="2"/><path d="M43 64h10" stroke="#7ec2fa" stroke-linecap="round" stroke-width="2"/>
</svg>
